<?xml version="1.0" encoding="utf-8"?>
<!-- Generator: Adobe Illustrator 25.0.0, SVG Export Plug-In . SVG Version: 6.00 Build 0)  -->
<svg version="1.1" id="图层_1" xmlns="http://www.w3.org/2000/svg" xmlns:xlink="http://www.w3.org/1999/xlink" x="0px" y="0px"
	 viewBox="0 0 24 24" style="enable-background:new 0 0 24 24;" xml:space="preserve">
<style type="text/css">
	.st0{fill:none;}
</style>
<path class="st0" d="M0,0h24v24H0V0z"/>
<g>
	<path d="M12,12.7L6.5,7.7c0.2-0.1,0.3-0.2,0.6-0.2H17c0.2,0,0.4,0.1,0.6,0.2L12,12.7z M18.2,8.3l-5.8,5.4c-0.2,0.2-0.4,0.2-0.6,0
		L5.9,8.3C5.8,8.5,5.7,8.7,5.7,8.9v6.3c0,0.8,0.6,1.3,1.3,1.3h9.8c0.8,0,1.3-0.6,1.3-1.3V8.9C18.3,8.7,18.3,8.5,18.2,8.3z"/>
</g>
</svg>
