<?xml version="1.0" encoding="utf-8"?>
<!-- Generator: Adobe Illustrator 25.0.0, SVG Export Plug-In . SVG Version: 6.00 Build 0)  -->
<svg version="1.1" id="图层_1" xmlns="http://www.w3.org/2000/svg" xmlns:xlink="http://www.w3.org/1999/xlink" x="0px" y="0px"
	 viewBox="0 0 50 50" style="enable-background:new 0 0 50 50;" xml:space="preserve">
<path d="M14.1,14.1c-0.3,0-0.5,0.2-0.5,0.5V33c0,0.3,0.2,0.5,0.5,0.5h15.1l7,6c0.1,0.1,0.2,0.1,0.3,0.1c0.1,0,0.1,0,0.2,0
	c0.2-0.1,0.3-0.3,0.3-0.5V14.7c0-0.3-0.2-0.5-0.5-0.5H14.1z M25.3,18.7c1.1,0,2,0.9,2,2s-0.9,2-2,2s-2-0.9-2-2S24.2,18.7,25.3,18.7z
	 M19.7,21.8c0.8,0,1.5,0.7,1.5,1.5c0,0.8-0.7,1.5-1.5,1.5s-1.5-0.7-1.5-1.5C18.2,22.5,18.9,21.8,19.7,21.8z M30.9,21.8
	c0.8,0,1.5,0.7,1.5,1.5c0,0.8-0.7,1.5-1.5,1.5c-0.8,0-1.5-0.7-1.5-1.5C29.4,22.5,30.1,21.8,30.9,21.8z M25.3,24.8c0.2,0,0.4,0,0.6,0
	c0.1,0,0.3,0,0.4,0c0,0,0,0,0,0c0,0,0.1,0,0.1,0c0.1,0,0.2,0,0.4,0.1c0,0,0,0,0,0c1.7,0.5,2.1,1.7,2.1,2.2v0.7h-7.1v-0.7
	c0-0.5,0.4-1.7,2.1-2.2c0,0,0,0,0,0c0.1,0,0.2,0,0.4-0.1c0,0,0.1,0,0.1,0c0,0,0,0,0,0c0.1,0,0.2,0,0.4,0
	C24.9,24.9,25.1,24.8,25.3,24.8z M19.7,25.9c0.5,0,0.9,0.1,1.3,0.2c-0.2,0.4-0.3,0.8-0.3,1.1v0.7h-3.6v-0.5
	C17.2,27,17.8,25.9,19.7,25.9z M30.9,25.9c1.9,0,2.5,1.2,2.5,1.6v0.5h-3.6v-0.7c0-0.3-0.1-0.7-0.3-1.1C30,26,30.4,25.9,30.9,25.9z"
	/>
</svg>
