<?xml version="1.0" encoding="utf-8"?>
<!-- Generator: Adobe Illustrator 26.5.0, SVG Export Plug-In . SVG Version: 6.00 Build 0)  -->
<svg version="1.1" id="Layer_1" xmlns="http://www.w3.org/2000/svg" xmlns:xlink="http://www.w3.org/1999/xlink" x="0px" y="0px"
	 viewBox="0 0 421.4 455" style="enable-background:new 0 0 421.4 455;" xml:space="preserve">
<style type="text/css">
	.st0{fill:#FC5D3D;}
	.st1{fill:#B25035;}
	.st2{fill:#F2E1D6;}
	.st3{fill:#72C2E9;}
	.st4{fill:#F0C020;}
	.st5{fill:#D6C0B4;}
	.st6{fill:#FFFFFF;}
	.st7{fill:#C5E5FE;}
</style>
<g>
	<path class="st0" d="M416.5,211.7v229.6c0,4.7-3.8,8.6-8.6,8.6H13.6c-4.7,0-8.6-3.8-8.6-8.6V211.7c0-4.7,3.8-8.6,8.6-8.6H30v205.7
		c0,5.9,5.9,10.1,11.4,8.1c46.9-16.6,129.2-15,169.3,4.8l0,0c40-19.8,122.4-21.4,169.3-4.8c5.6,2,11.4-2.2,11.4-8.1V203.2h16.5
		C412.7,203.2,416.5,207,416.5,211.7L416.5,211.7z"/>
	<path class="st1" d="M403.5,203.2v205.7c0,14.2-14,24.1-27.4,19.4c-44.1-15.7-123.1-14-160,4.2c-3.5,1.7-7.7,1.7-11.1-0.3
		c-37.2-18.1-115.8-19.5-159.5-4c-13.4,4.8-27.4-5.3-27.4-19.4V203.2h12v205.7c0,5.9,5.9,10.1,11.4,8.1
		c46.9-16.6,129.2-15,169.3,4.8l0,0c40-19.8,122.4-21.4,169.3-4.8c5.6,2,11.4-2.2,11.4-8.1V203.2H403.5z"/>
	<path class="st2" d="M386.2,170.6c-13.9-5.8-31.7-9.8-51-11.9c-3.9-0.4-7.9-0.8-12-1.1v2.5c0,9.5-7.7,17.1-17.1,17.1h-78.8
		l-16.5,28.7l-1.6-2.7l-14.9-25.9h-78.8c-9.5,0-17.1-7.7-17.1-17.1v-2.5c-4,0.3-8.1,0.6-12,1.1c-19.3,2.1-37.1,6.1-51,11.9
		c-3.2,1.3-5.3,4.5-5.3,7.9V409c0,5.9,5.9,10.1,11.4,8.1c46.9-16.6,129.2-15,169.3,4.8l0,0c40-19.8,122.4-21.4,169.3-4.8
		c5.6,2,11.4-2.2,11.4-8.1V178.5C391.5,175,389.4,171.9,386.2,170.6z"/>
	<path class="st3" d="M323.2,22.1v138c0,9.5-7.7,17.1-17.1,17.1h-78.8l-16.5,28.7l-1.6-2.7l-14.9-25.9h-78.8
		c-9.5,0-17.1-7.7-17.1-17.1v-138c0-9.5,7.7-17.1,17.1-17.1h190.6C315.6,5,323.2,12.6,323.2,22.1z"/>
	<g>
		<g>
			<path d="M407.5,72.9c-7.5-2.5-13.3-4-17.2-20.8c-1.3-5.5-9.1-5.5-10.4,0c-3.8,16.4-9.1,18.2-17.2,20.8c-4.8,1.6-4.9,8.5,0,10.1
				c13.4,4.4,14.9,11,17.2,20.8c1.3,5.5,9.1,5.5,10.4,0c3.8-16.4,9.4-18.3,17.2-20.8C412.4,81.4,412.4,74.5,407.5,72.9z"/>
			<path class="st4" d="M393.3,78.1c-2.9,2.1-5.6,4.8-7.9,8.9c-1.9-3.2-4.5-6.2-8.3-8.8c3.1-2.1,5.9-5,8.2-9.3
				C387.7,73.2,390.5,76.1,393.3,78.1z"/>
		</g>
		<g>
			<path d="M58.8,72.9c-7.5-2.5-13.3-4-17.2-20.8c-1.3-5.5-9.1-5.5-10.4,0C27.4,68.5,22.1,70.3,14,72.9c-4.8,1.6-4.9,8.5,0,10.1
				c13.4,4.4,14.9,11,17.2,20.8c1.3,5.5,9.1,5.5,10.4,0C45.4,87.4,51,85.5,58.8,83C63.6,81.4,63.7,74.5,58.8,72.9z"/>
			<path class="st4" d="M44.5,78.1c-2.9,2.1-5.6,4.8-7.9,8.9c-1.9-3.2-4.5-6.2-8.3-8.8c3.1-2.1,5.9-5,8.2-9.3
				C39,73.2,41.7,76.1,44.5,78.1z"/>
		</g>
	</g>
	<path class="st5" d="M323.2,157.6v2.5c0,9.5-7.7,17.1-17.1,17.1h-78.8l-16.5,28.7l-16.5-28.6h-78.8c-9.5,0-17.1-7.7-17.1-17.1v-2.5
		c-4,0.3-8.1,0.6-12,1.1v1.5c0,16.1,13.1,29.1,29.1,29.1h71.9l13.1,22.6c4.6,8,16.2,8,20.8,0l13.1-22.6h71.9
		c16,0,29.1-13.1,29.1-29.1v-1.4C331.3,158.2,327.3,157.9,323.2,157.6L323.2,157.6z"/>
</g>
<g>
	<path class="st6" d="M208.9,407.6c-43.7-17.7-115.2-18-160.4-5.6c-2.7,0.7-5.4-0.8-6.1-3.5s0.8-5.4,3.5-6.1
		c46.8-12.8,119.1-12.6,164.9,5.2c39.8-15.4,96.8-17,138.9-10.6c2.7,0.4,4.6,3,4.2,5.7c-0.4,2.7-3,4.6-5.7,4.2
		c-40.9-6.2-97.4-4.7-135.5,10.7C211.5,408.1,210.2,408.1,208.9,407.6L208.9,407.6z M373,402c-1.8-0.5-3.7-1-5.7-1.5
		c-2.7-0.6-4.3-3.4-3.7-6s3.4-4.3,6-3.7c2,0.5,4,1,6,1.5c2.7,0.7,4.2,3.5,3.5,6.1C378.5,401.2,375.7,402.8,373,402L373,402z"/>
</g>
<g>
	<path class="st7" d="M118.4,162.2c-2.8,0-5-2.2-5-5V51c0-2.8,2.2-5,5-5s5,2.2,5,5v106.3C123.4,160,121.1,162.2,118.4,162.2z
		 M118.4,36c-2.8,0-5-2.2-5-5v-6c0-2.8,2.2-5,5-5s5,2.2,5,5v6C123.4,33.7,121.1,36,118.4,36z"/>
</g>
<g>
	<path class="st7" d="M303.2,162.2c-2.8,0-5-2.2-5-5v-6c0-2.8,2.2-5,5-5s5,2.2,5,5v6C308.2,160,306,162.2,303.2,162.2z M303.2,136.2
		c-2.8,0-5-2.2-5-5V25c0-2.8,2.2-5,5-5s5,2.2,5,5v106.3C308.2,134,306,136.2,303.2,136.2z"/>
</g>
<path d="M62.2,222.7c36.4-8.7,79.8-9,116.5-1c2.7,0.6,5.4-1.1,5.9-3.8c0.6-2.7-1.1-5.4-3.8-5.9c-37.1-8-82.1-8.2-121,1.1
	c-2.7,0.6-4.3,3.3-3.7,6C56.8,221.7,59.6,223.4,62.2,222.7z"/>
<path d="M253.6,221.7c30.7-6.6,65.1-7.4,95.5-3c2.7,0.4,5.3-1.5,5.7-4.2c0.4-2.7-1.5-5.3-4.2-5.7c-31.1-4.5-66.8-3.9-99,3.1
	c-2.7,0.6-4.4,3.2-3.8,5.9C248.2,220.6,250.9,222.3,253.6,221.7L253.6,221.7z"/>
<path d="M56.2,256.6c0.6,2.7,3.4,4.3,6,3.7c37.3-8.9,80.8-8.8,116.5-1c2.7,0.6,5.4-1.1,5.9-3.8c0.6-2.7-1.1-5.4-3.8-5.9
	c-37.3-8.1-82.3-8.2-121,1C57.2,251.3,55.6,254,56.2,256.6L56.2,256.6z"/>
<path d="M253.6,259.3c30.8-6.7,65.2-7.3,95.5-3c2.7,0.4,5.3-1.5,5.7-4.2s-1.5-5.3-4.2-5.7c-30.9-4.5-66.6-3.9-99,3.1
	c-2.7,0.6-4.4,3.2-3.8,5.9C248.2,258.2,250.9,259.9,253.6,259.3L253.6,259.3z"/>
<path d="M56.2,294.3c0.6,2.7,3.4,4.3,6,3.7c37.3-8.9,80.8-8.8,116.5-1c2.7,0.6,5.4-1.1,5.9-3.8c0.6-2.7-1.1-5.4-3.8-5.9
	c-37.3-8.1-82.3-8.2-121,1C57.2,288.9,55.6,291.6,56.2,294.3L56.2,294.3z"/>
<path d="M253.6,297c30.8-6.7,65.2-7.3,95.5-3c2.7,0.4,5.3-1.5,5.7-4.2s-1.5-5.3-4.2-5.7c-30.9-4.5-66.6-3.9-99,3.1
	c-2.7,0.6-4.4,3.2-3.8,5.9C248.2,295.8,250.9,297.5,253.6,297L253.6,297z"/>
<path d="M56.2,331.9c0.6,2.7,3.3,4.3,6,3.7c37.3-8.9,80.8-8.8,116.5-1c2.7,0.6,5.4-1.1,5.9-3.8c0.6-2.7-1.1-5.4-3.8-5.9
	c-37.6-8.1-82.6-8.1-121,1C57.2,326.5,55.6,329.2,56.2,331.9L56.2,331.9z"/>
<path d="M253.6,334.6c30.7-6.7,65.2-7.4,95.5-3c2.7,0.4,5.3-1.5,5.7-4.2s-1.5-5.3-4.2-5.7c-31.5-4.5-67.1-3.8-99,3.1
	c-2.7,0.6-4.4,3.2-3.8,5.9C248.2,333.4,250.9,335.1,253.6,334.6L253.6,334.6z"/>
<path d="M56.2,369.5c0.6,2.7,3.3,4.3,6,3.7c37.3-8.9,80.8-8.8,116.5-1c2.7,0.6,5.4-1.1,5.9-3.8c0.6-2.7-1.1-5.4-3.8-5.9
	c-37.8-8.2-82.7-8.1-121,1C57.2,364.1,55.6,366.8,56.2,369.5L56.2,369.5z"/>
<path d="M253.6,372.2c31-6.7,65.5-7.3,95.5-3c2.7,0.4,5.3-1.5,5.7-4.2s-1.5-5.3-4.2-5.7c-30.9-4.5-66.5-3.9-99,3.1
	c-2.7,0.6-4.4,3.2-3.8,5.9C248.2,371.1,250.9,372.7,253.6,372.2L253.6,372.2z"/>
<path d="M33.5,166c-5.1,2.1-8.3,7-8.4,12.4v0.1v19.7H13.6c-7.5,0-13.6,6.1-13.6,13.6v229.6c0,7.5,6.1,13.6,13.6,13.6l0,0h274.3
	c2.8,0,5-2.2,5-5s-2.2-5-5-5H13.6l0,0c-2,0-3.6-1.6-3.6-3.6V211.7c0-2,1.6-3.6,3.6-3.6H25v110.3c0,2.8,2.2,5,5,5s5-2.2,5-5
	c0-16.3,0-121.6,0-140l0,0c0-1.4,0.9-2.8,2.2-3.3c16.8-7.1,38-10.6,56.2-12.2c1.4,10.8,10.7,19.3,21.9,19.3h75.9l14.4,25V414
	c-42.4-16.9-119.9-18.2-166-1.8c-2.3,0.8-4.8-0.9-4.8-3.4v-50.3c0-2.8-2.2-5-5-5s-5,2.2-5,5c0,0.8,0,49.6,0,50.4
	c0,9.4,9.3,15.9,18.1,12.7c46.6-16.5,126.7-14.4,165.1,4.4c1.5,0.9,3.4,0.9,4.8,0.2c38.3-18.9,118.7-21.2,165.4-4.5
	c8.8,3.1,18.1-3.5,18.1-12.8V208.2h11.5c2,0,3.6,1.6,3.6,3.6v229.6c0,2-1.6,3.6-3.6,3.6l0,0h-80c-2.8,0-5,2.2-5,5s2.2,5,5,5h80l0,0
	c7.5,0,13.6-6.1,13.6-13.6V211.7c0-7.5-6.1-13.6-13.6-13.6h-11.5v-19.6c0-5.5-3.3-10.4-8.4-12.5c-18-7.6-40.4-11.4-59.9-13V22.1
	C328,9.9,318.1,0,305.9,0l0,0h-10.6c-2.8,0-5,2.2-5,5s2.3,5,5,5h10.6l0,0c6.7,0,12.1,5.4,12.1,12.1v138c0,6.7-5.4,12.1-12.1,12.1
	h-78.8c-1.8,0-3.4,1-4.3,2.5l-12,21.2l-12.2-21.1c-0.9-1.5-2.5-2.5-4.3-2.5h-78.8c-6.7,0-12.1-5.4-12.1-12.1v-138
	c0-6.7,5.4-12.1,12.1-12.1l0,0h140c2.8,0,5-2.2,5-5s-2.2-5-5-5h-140l0,0c-12.2,0-22.1,9.9-22.1,22.1v130.9
	C73.9,154.6,51.4,158.4,33.5,166L33.5,166z M230.2,182.2h75.9c11.2,0,20.5-8.4,21.9-19.3c18.2,1.6,39.4,5.1,56.2,12.2
	c1.4,0.6,2.2,1.9,2.2,3.3v230.4c0,2.5-2.5,4.2-4.8,3.4c-46-16.4-123.6-15.1-166,1.8V207.2L230.2,182.2z"/>
<circle cx="275.5" cy="5" r="5"/>
<circle cx="30.1" cy="338.5" r="5"/>
<circle cx="308" cy="449.8" r="5"/>
<g>
	<path d="M156.8,45.1v24.3h37V45.1c0-3.5,0.8-6.1,2.3-7.8c1.6-1.7,3.6-2.6,6.2-2.6c2.6,0,4.7,0.9,6.3,2.6s2.4,4.3,2.4,7.8v66.7
		c0,3.5-0.8,6.1-2.4,7.9c-1.6,1.7-3.7,2.6-6.2,2.6c-2.6,0-4.6-0.9-6.2-2.6c-1.5-1.8-2.3-4.4-2.3-7.8V83.4h-37v28.5
		c0,3.5-0.8,6.1-2.4,7.9c-1.6,1.7-3.7,2.6-6.2,2.6c-2.6,0-4.6-0.9-6.2-2.6c-1.5-1.8-2.3-4.4-2.3-7.8V45.1c0-3.5,0.8-6.1,2.3-7.8
		c1.5-1.7,3.6-2.6,6.2-2.6c2.6,0,4.7,0.9,6.3,2.6C156,39,156.8,41.6,156.8,45.1z"/>
	<path d="M286.3,69.7v45.8c0,5.2-0.6,9.7-1.7,13.5c-1.1,3.8-2.9,6.9-5.4,9.4s-5.7,4.3-9.7,5.5c-4,1.2-8.9,1.8-14.9,1.8
		c-5.4,0-10.3-0.8-14.6-2.3c-4.3-1.5-7.6-3.5-9.9-5.9s-3.5-4.9-3.5-7.4c0-1.9,0.7-3.5,2-4.7s2.9-1.8,4.7-1.8c2.3,0,4.3,1,6.1,3.1
		c0.8,1,1.7,2.1,2.6,3.1c0.9,1.1,1.9,2,3,2.7c1.1,0.7,2.4,1.3,4,1.7c1.5,0.4,3.3,0.5,5.3,0.5c4.1,0,7.2-0.6,9.5-1.7
		c2.3-1.1,3.8-2.7,4.7-4.8c0.9-2,1.4-4.2,1.6-6.6c0.2-2.3,0.3-6.1,0.3-11.2c-2.4,3.4-5.2,6-8.4,7.7c-3.2,1.8-7,2.7-11.4,2.7
		c-5.3,0-9.9-1.3-13.8-4s-7-6.5-9.1-11.3c-2.1-4.9-3.2-10.5-3.2-16.8c0-4.7,0.6-9,1.9-12.8s3.1-7,5.5-9.6s5.1-4.6,8.3-5.9
		c3.1-1.3,6.5-2,10.3-2c4.5,0,8.3,0.9,11.6,2.6s6.3,4.4,9.1,8.1V67c0-2.7,0.7-4.9,2-6.4s3.1-2.3,5.2-2.3c3,0,5.1,1,6.1,3
		C285.8,63.1,286.3,66,286.3,69.7z M240.6,89.7c0,6.4,1.4,11.2,4.2,14.5c2.8,3.3,6.4,4.9,10.8,4.9c2.6,0,5.1-0.7,7.4-2.1
		c2.3-1.4,4.2-3.5,5.7-6.4s2.2-6.3,2.2-10.3c0-6.4-1.4-11.4-4.2-15s-6.6-5.4-11.2-5.4c-4.5,0-8.1,1.7-10.8,5.1
		C242,78.5,240.6,83.4,240.6,89.7z"/>
</g>
</svg>
