<svg id="Capa_1" enable-background="new 0 0 512.001 512.001" height="512" viewBox="0 0 512.001 512.001" width="512" xmlns="http://www.w3.org/2000/svg"><g><g><g><path d="m504.501 215.86-248.5-165-248.5 165 248.5 195z" fill="#fee97d"/><path d="m256.001 80.86 218.5 154.919 30-19.919-248.5-165-248.5 165 27.183 18.048z" fill="#f4da6e"/><path d="m421.001 401.501h-330v-364c0-16.569 13.431-30 30-30h270c16.569 0 30 13.431 30 30z" fill="#f9f7f8"/><path d="m391.001 7.501h-30c16.569 0 30 13.431 30 30v364h30v-364c0-16.569-13.431-30-30-30z" fill="#e5e1e5"/><path d="m474.501 504.501h-437c-16.569 0-30-13.431-30-30v-258.641l248.5 165 248.5-165v258.641c0 16.568-13.431 30-30 30z" fill="#fffbe5"/><g><path d="m474.501 235.779v238.722c0 16.569-13.431 30-30 30h30c16.569 0 30-13.431 30-30v-258.641z" fill="#fceca9"/></g><path d="m504.501 440.86-215.311-142.963c-20.111-13.354-46.267-13.354-66.378 0l-215.311 142.963v33.641c0 16.569 13.431 30 30 30h437c16.569 0 30-13.431 30-30z" fill="#fee97d"/><path d="m504.501 474.501v-33.641l-30-19.919v53.561c0 16.569-13.431 30-30 30h30c16.569-.001 30-13.433 30-30.001z" fill="#f4da6e"/></g><g><g><path d="m297.133 100.027-57.402-17.036v-28.287l57.402-17.036c2.564-.761 5.138 1.16 5.138 3.835v54.689c0 2.675-2.574 4.596-5.138 3.835z" fill="#fee97d"/><path d="m297.133 37.669-24.862 7.378v47.602l24.862 7.378c2.564.761 5.138-1.16 5.138-3.835v-54.689c0-2.674-2.574-4.595-5.138-3.834z" fill="#f4da6e"/><path d="m239.731 54.704v28.287h-15.856c-7.811 0-14.144-6.332-14.144-14.144 0-7.811 6.332-14.144 14.144-14.144h15.856z" fill="#00516a"/></g></g></g><path d="m191.856 225.591c4.142 0 7.5-3.358 7.5-7.5s-3.358-7.5-7.5-7.5h-18.885c-4.142 0-7.5 3.358-7.5 7.5v44.819c0 4.142 3.358 7.5 7.5 7.5h18.885c4.142 0 7.5-3.358 7.5-7.5s-3.358-7.5-7.5-7.5h-11.385v-7.41h9.993c4.142 0 7.5-3.358 7.5-7.5s-3.358-7.5-7.5-7.5h-9.993v-7.41h11.385zm-58.407-15.207c-4.142 0-7.5 3.358-7.5 7.5v45.194c0 3.651 2.63 6.772 6.229 7.392.536.092 12 .137 17.152.108 4.142-.023 7.481-3.4 7.458-7.542-.023-4.128-3.376-7.458-7.499-7.458-.014 0-.029 0-.043 0-2.8.016-5.741.028-8.297.034v-37.728c0-4.142-3.357-7.5-7.5-7.5zm56.785-75c-4.142 0-7.5 3.358-7.5 7.5v21.924l-18.025-26.102c-1.865-2.7-5.268-3.875-8.403-2.898-3.134.977-5.268 3.878-5.268 7.16v45.148c0 4.142 3.358 7.5 7.5 7.5s7.5-3.358 7.5-7.5v-21.089l16.859 24.414c2.132 3.077 5.715 4.375 9.129 3.308 3.467-1.084 5.708-4.286 5.708-8.157v-43.708c0-4.142-3.358-7.5-7.5-7.5zm321.766 80.458c-.038-2.227-1.051-4.762-3.399-6.262l-80.1-53.183v-118.896c0-20.678-16.822-37.5-37.5-37.5h-270c-20.678 0-37.5 16.822-37.5 37.5v31.51c0 4.142 3.358 7.5 7.5 7.5s7.5-3.358 7.5-7.5v-31.51c0-12.407 10.093-22.5 22.5-22.5h270c12.407 0 22.5 10.093 22.5 22.5v229.78l-19.779 13.133c-3.451 2.291-4.391 6.946-2.099 10.397 2.311 3.481 6.986 4.367 10.397 2.099l94.981-63.067v197.034l-148.372-98.516 24.192-16.063c3.451-2.291 4.391-6.946 2.1-10.396s-6.946-4.391-10.396-2.1l-29.453 19.557-41.732-27.709c-22.682-15.061-51.993-15.061-74.675 0l-41.732 27.709-78.43-52.077v-106.798c0-.008 0-.016 0-.023v-56.46c0-4.142-3.358-7.5-7.5-7.5s-7.5 3.358-7.5 7.5v52.397l-80.112 53.19c-1.869 1.254-3.439 3.548-3.388 6.339v258.574c0 20.678 16.822 37.5 37.5 37.5h437c20.678 0 37.5-16.822 37.5-37.5v-258.574c-.002-.013 0-.022-.003-.085zm-83.499 41.479v-82.919l62.441 41.458zm-345-82.918v82.919l-62.441-41.461zm-68.5 55.44 148.372 98.518-148.372 98.516zm482 244.658c0 12.407-10.093 22.5-22.5 22.5h-437c-12.407 0-22.5-10.093-22.5-22.5v-29.618l211.959-140.737c17.642-11.714 40.439-11.714 58.081 0l211.959 140.737v29.618zm-191.852-442.214c-2.895-2.161-6.688-2.837-10.15-1.808l-56.357 16.726h-14.767c-11.934 0-21.644 9.709-21.644 21.644 0 11.306 8.715 20.609 19.779 21.558l5.101 26.056c.791 4.09 4.814 6.7 8.801 5.919 4.065-.796 6.715-4.736 5.919-8.801l-4.52-23.088h1.33l56.357 16.726c3.445 1.024 7.251.356 10.15-1.809 2.894-2.16 4.621-5.605 4.621-9.216v-54.691c.002-3.611-1.726-7.056-4.62-9.216zm-72.918 43.204h-8.356c-3.663 0-6.644-2.98-6.644-6.644s2.98-6.644 6.644-6.644h8.356zm62.54 16.012-47.54-14.109v-17.092l47.54-14.109zm-67.271 179.114c4.142 0 7.5-3.358 7.5-7.5v-37.732h5.041c4.142 0 7.5-3.358 7.5-7.5s-3.358-7.5-7.5-7.5h-24.98c-4.142 0-7.5 3.358-7.5 7.5s3.358 7.5 7.5 7.5h4.939v37.732c0 4.142 3.358 7.5 7.5 7.5zm48.274 0c4.142 0 7.5-3.358 7.5-7.5v-37.732h5.041c4.142 0 7.5-3.358 7.5-7.5s-3.358-7.5-7.5-7.5h-24.98c-4.142 0-7.5 3.358-7.5 7.5s3.358 7.5 7.5 7.5h4.939v37.732c0 4.142 3.358 7.5 7.5 7.5zm-42.826-120.026c4.142 0 7.5-3.358 7.5-7.5s-3.358-7.5-7.5-7.5h-18.885c-4.142 0-7.5 3.358-7.5 7.5v44.819c0 4.142 3.358 7.5 7.5 7.5h18.885c4.142 0 7.5-3.358 7.5-7.5s-3.358-7.5-7.5-7.5h-11.385v-7.41h9.993c4.142 0 7.5-3.358 7.5-7.5s-3.358-7.5-7.5-7.5h-9.993v-7.41h11.385zm71.435 67.5v44.819c0 4.142 3.358 7.5 7.5 7.5h18.885c4.142 0 7.5-3.358 7.5-7.5s-3.358-7.5-7.5-7.5h-11.385v-7.41h9.993c4.142 0 7.5-3.358 7.5-7.5s-3.358-7.5-7.5-7.5h-9.993v-7.41h11.385c4.142 0 7.5-3.358 7.5-7.5s-3.358-7.5-7.5-7.5h-18.885c-4.142.001-7.5 3.359-7.5 7.501zm81.67 11.549c0-10.618-8.936-19.255-19.92-19.255h-12.02c-.002 0-.005 0-.007 0s-.005 0-.007 0c-4.142 0-7.5 3.358-7.5 7.5v45.232c0 4.142 3.358 7.5 7.5 7.5s7.5-3.358 7.5-7.5v-7.913l11.325 12.868c2.745 3.119 7.486 3.402 10.585.675 3.109-2.736 3.412-7.476.675-10.585l-9.727-11.051c6.833-3.055 11.596-9.728 11.596-17.471zm-19.92 4.255c-1.092 0-2.745.005-4.478.013-.007-1.659-.016-6.777-.021-8.524h4.498c2.621 0 4.92 1.988 4.92 4.255s-2.298 4.256-4.919 4.256zm-26.278-53.278c-3.984 0-7.799-1.585-10.205-4.241-2.781-3.069-7.523-3.304-10.594-.521-3.069 2.781-3.303 7.524-.521 10.594 5.28 5.827 13.051 9.169 21.32 9.169 10.428 0 19.197-6.723 20.851-15.985 1.257-7.042-1.846-16.208-14.328-20.812-5.22-1.925-10.103-4.015-11.935-4.813-1.114-1.29.475-2.771 2.003-3.231 5.382-1.62 10.551 2.386 10.752 2.543 3.171 2.617 7.864 2.194 10.514-.959 2.665-3.17 2.255-7.901-.916-10.567-4.167-3.503-14.052-8.577-24.677-5.379-6.939 2.091-11.854 7.589-12.824 14.35-.917 6.388 1.854 12.534 7.232 16.04 2.554 1.665 5.695 2.784 14.659 6.09 2.374.875 5.043 2.475 4.752 4.102-.26 1.459-2.374 3.62-6.083 3.62zm-34.203-45.005c-4.063-.806-8.011 1.829-8.82 5.892l-3.816 19.176-6.163-20.003c-1.219-3.958-5.417-6.18-9.375-4.959-2.637.812-4.495 2.948-5.086 5.452l-6.041 19.517-3.809-19.257c-.803-4.063-4.747-6.702-8.813-5.902-4.063.804-6.706 4.75-5.902 8.813l8.813 44.553c.773 3.891 4.37 6.724 8.319 6.724h.058c3.625-.024 6.844-2.347 8.01-5.779.022-.065.043-.13.063-.196l6.592-21.297 6.562 21.301c.031.102.065.204.101.304 1.208 3.396 4.429 5.667 8.029 5.667h.06c3.624-.025 6.842-2.348 8.008-5.779.105-.311.19-.628.255-.95l8.848-44.457c.807-4.063-1.83-8.012-5.893-8.82z"/></g></svg>