<?xml version="1.0" encoding="utf-8"?>
<!-- Generator: Adobe Illustrator 26.5.0, SVG Export Plug-In . SVG Version: 6.00 Build 0)  -->
<svg version="1.1" id="svg5175" xmlns:svg="http://www.w3.org/2000/svg"
	 xmlns="http://www.w3.org/2000/svg" xmlns:xlink="http://www.w3.org/1999/xlink" x="0px" y="0px" viewBox="0 0 480 480"
	 style="enable-background:new 0 0 480 480;" xml:space="preserve">
<style type="text/css">
	.st0{fill:#E7EBEF;}
	.st1{fill:#68B1FC;}
	.st2{fill:#FCB860;}
	.st3{fill:#FDD5A6;}
	.st4{fill:#5A626E;}
	.st5{fill:#59E78B;}
	.st6{fill:#FC6067;}
	.st7{fill:#DBE1E7;}
	.st8{fill:#FDCC93;}
	.st9{fill:#4FA4FB;}
	.st10{fill:#41E37A;}
	.st11{fill:#FB4F56;}
	.st12{fill:#FBB04F;}
	.st13{fill:#515663;}
</style>
<g id="layer1" transform="translate(0 -280.067)">
	<path id="path31969" class="st0" d="M24,304h400c8.9,0,16,7.1,16,16v256c0,8.9-7.1,16-16,16H24c-8.9,0-16-7.1-16-16V320
		C8,311.2,15.1,304,24,304L24,304z"/>
	<path id="path31959" class="st1" d="M40,336h368v224H40L40,336z"/>
	<path id="path31961" class="st2" d="M112,512h80c22.2,0,40,17.8,40,40v8H72v-8C72,529.9,89.8,512,112,512z"/>
	<path id="path31963" class="st3" d="M152,528c-20.2,0-24-16-24-16v-40h48v40C176,512,172.3,528,152,528L152,528z"/>
	<path id="path31965" class="st4" d="M144,368h16c22.2,0,40,17.8,40,40v24h-96v-24C104,385.9,121.8,368,144,368z"/>
	<path id="path31973" class="st5" d="M384,696h48c22.2,0,40,17.8,40,40l0,16H344l0-16C344,713.9,361.8,696,384,696z"/>
	<path id="path31975" class="st1" d="M216,696h48c22.2,0,40,17.8,40,40l0,16H176l0-16C176,713.9,193.8,696,216,696L216,696z"/>
	<path id="path31977" class="st6" d="M48,696h48c22.2,0,40,17.8,40,40l0,16H8l0-16C8,713.9,25.8,696,48,696z"/>
	<g>
		<path id="rect31979" class="st3" d="M72,624c17.7,0,32,14.3,32,32v8c0,17.7-14.3,32-32,32s-32-14.3-32-32v-8
			C40,638.3,54.3,624,72,624z"/>
		<path id="rect31981" class="st3" d="M240,624c17.7,0,32,14.3,32,32v8c0,17.7-14.3,32-32,32c-17.7,0-32-14.3-32-32v-8
			C208,638.3,222.3,624,240,624z"/>
		<path id="rect31983" class="st3" d="M408,624c17.7,0,32,14.3,32,32v8c0,17.7-14.3,32-32,32s-32-14.3-32-32v-8
			C376,638.3,390.3,624,408,624z"/>
	</g>
	<path id="path33887-4" vector-effect="none" class="st7" d="M409.7,304c3.9,4.3,6.3,9.9,6.3,16v240c0,13.2-10.9,24-24,24H24
		c-6.1,0-11.6-2.4-15.8-6.1c0.9,8,7.6,14.1,15.8,14.1h400c8.9,0,16-7.1,16-16V320c0-8.9-7.1-16-16-16H409.7z"/>
	<path id="path33893-2" vector-effect="none" class="st8" d="M72,624c-2.4,0-4.8,0.3-7.1,0.8C74.1,632.2,80,643.4,80,656v8
		c0,12.6-6,23.8-15.2,31.2c2.3,0.5,4.7,0.8,7.1,0.8c17.7,0,32-14.3,32-32v-8C104,638.3,89.7,624,72,624z"/>
	<path id="path33895-0" vector-effect="none" class="st8" d="M408,624c-2.4,0-4.8,0.3-7.1,0.8c9.2,7.3,15.1,18.5,15.1,31.1v8
		c0,12.6-5.9,23.8-15.1,31.2c2.3,0.5,4.7,0.8,7.1,0.8c17.7,0,32-14.3,32-32v-8C440,638.3,425.7,624,408,624L408,624z"/>
	<path id="path33899-3" vector-effect="none" class="st8" d="M240,624c-2.5,0-4.8,0.3-7.1,0.8c9.2,7.3,15.1,18.5,15.1,31.1v8
		c0,12.6-5.9,23.8-15.1,31.1c2.3,0.5,4.7,0.9,7.2,0.9c17.7,0,32-14.3,32-32v-8C272,638.3,257.7,624,240,624L240,624z"/>
	<path id="path35007-2" vector-effect="none" class="st9" d="M258.5,696c13,8.6,21.5,23.3,21.5,40c0,4.5-3.6,8-8,8h-96c0,0,0,0,0,0
		v8h128v-16c0-22.2-17.8-40-40-40H258.5z"/>
	<path id="path35009-9" vector-effect="none" class="st10" d="M426.5,696c13,8.6,21.5,23.3,21.5,40c0,4.5-3.6,8-8,8h-96c0,0,0,0,0,0
		v8h128v-16c0-22.2-17.8-40-40-40H426.5z"/>
	<path id="path35011-8" vector-effect="none" class="st11" d="M90.5,696c13,8.6,21.5,23.3,21.5,40c0,4.5-3.6,8-8,8h-96
		c0,0,0,0-0.1,0v8h128v-16c0-22.2-17.8-40-40-40H90.5z"/>
	<path id="path35015-3" vector-effect="none" class="st9" d="M40,336v224h24v-208c0-4.4,3.6-8,8-8h336c0,0,0,0,0,0v-8L40,336z"/>
	<path id="path35071-4" vector-effect="none" class="st12" d="M186.4,512c13,8.6,21.6,23.3,21.6,40v8h24v-8c0-22.2-17.8-40-40-40
		H186.4z"/>
	<path id="path35075-7" vector-effect="none" class="st8" d="M128,472.1v35.1c7.4,3.1,15.5,4.8,24,4.8c8.5,0,16.6-1.7,24-4.8v-35.2
		L128,472.1z"/>
	<path id="path35083-2" vector-effect="none" class="st13" d="M154.1,368c13.1,8.6,21.9,23.2,21.9,40v19.3l4.7,4.7H200v-24
		c0-22.2-17.8-40-40-40H154.1z"/>
	<path id="path31967" class="st3" d="M176,416c0,0-24,16-48,16h-16v16c0,22.2,17.8,40,40,40c22.2,0,40-17.8,40-40v-16L176,416z"/>
	<path id="path35079-5" vector-effect="none" class="st8" d="M176,416c0,0-3.4,2-8,4.5V448c0,16.5-8.5,31-21.2,39.6
		c1.7,0.2,3.4,0.4,5.2,0.4c22.2,0,40-17.8,40-40v-16L176,416z"/>
	<path id="path31971" class="st6" d="M248,288h208c8.9,0,16,7.1,16,16v128c0,8.9-7.1,16-16,16H320l-56,48v-48h-16
		c-8.9,0-16-7.1-16-16V304C232,295.2,239.1,288,248,288L248,288z"/>
	<path id="path31985" class="st0" d="M320,408l64-40l-64-40V408z"/>
	<path id="path35021-2" vector-effect="none" class="st11" d="M441.7,288c3.9,4.3,6.3,9.8,6.3,16v112c0,13.2-10.9,24-24,24h-101
		l-53.7,46.1c-1.6,1.4-3.4,1.9-5.2,1.9v8l56-48h136c8.9,0,16-7.1,16-16V304c0-8.9-7.1-16-16-16L441.7,288z"/>
	<path id="path3466-7" vector-effect="none" d="M248,280.1c-10.3,0-19.2,6.7-22.5,16H24c-13.2,0-24,10.8-24,24v80
		c-0.2,10.8,16.2,10.8,16,0v-80c0-4.6,3.4-8,8-8h200v16H40c-4.4,0-8,3.6-8,8v224c0,4.4,3.6,8,8,8h368c4.4,0,8-3.6,8-8v-104h16v120
		c0,4.6-3.4,8-8,8H24c-4.6,0-8-3.4-8-8V472c0.2-10.8-16.2-10.8-16,0v104c0,13.2,10.8,24,24,24h400c13.2,0,24-10.8,24-24v-120h8
		c13.2,0,24-10.9,24-24V304c0-13.2-10.9-24-24-24L248,280.1z M248,296h208c4.6,0,8,3.5,8,8v128c0,4.6-3.5,8-8,8H320
		c-1.9,0-3.7,0.7-5.2,1.9L272,478.7V448c0-4.4-3.6-8-8-8h-16c-4.6,0-8-3.5-8-8V304C240,299.5,243.4,296,248,296L248,296z M312,328
		v80c0,6.3,6.9,10.1,12.2,6.8l64-40c5-3.1,5-10.4,0-13.6l-64-40C319.4,318.2,312,320.9,312,328L312,328z M328,342.5l40.9,25.6
		L328,393.6V342.5z M48,344h176v88c0,13.2,10.8,24,24,24h8v40c0,6.9,8,10.6,13.2,6.1l53.7-46.1H400v96H240c0-26.5-21.6-48-48-48h-8
		v-20.4c9.8-8.8,16-21.5,16-35.7v-8c4.4,0,8-3.6,8-8v-24c0-26.5-21.6-48-48-48h-16c-26.5,0-48,21.6-48,48v24c0,4.4,3.6,8,8,8v8
		c0,14.2,6.2,26.9,16,35.7v20.4h-8c-26.5,0-48,21.5-48,48H48L48,344z M144,376.1h16c17.9,0,32,14.1,32,32v12.7l-10.3-10.3
		c-2.7-2.7-6.9-3.1-10.1-1c0,0-23.1,14.7-43.6,14.7h-16v-16C112,390.2,126.1,376,144,376.1L144,376.1z M7.9,423.9
		C3.5,424-0.1,427.6,0,432v8c-0.2,10.8,16.2,10.8,16,0v-8C16.1,427.5,12.4,423.9,7.9,423.9z M174.7,426.1l9.3,9.3V448
		c0,17.9-14.1,32-32,32c-17.9,0-32-14.1-32-32v-8h8C148.5,440.1,169.4,429.5,174.7,426.1z M136,493.2c5,1.8,10.4,2.8,16,2.8
		c5.6,0,11-1,16-2.8v17.3c0,0-2.7,9.5-16,9.5c-13.3,0-16-9.4-16-9.4V493.2z M112,520h10.8c0,0,6.9,16,29.2,16s29.2-16,29.2-16H192
		c17.9,0,32,14.1,32,32H80C80,534.2,94.1,520,112,520L112,520z M72,616c-22,0-40,18-40,40v8c0,9.3,3.4,17.8,8.7,24.6
		C17.7,692.2,0,712,0,736v16c0,4.4,3.6,8,8,8h128c4.4,0,8-3.6,8-8v-16c0-24-17.7-43.9-40.7-47.4c5.4-6.8,8.7-15.3,8.7-24.6v-8
		C112,634,94,616,72,616L72,616z M240,616c-22,0-40,18-40,40v8c0,9.3,3.4,17.8,8.7,24.6c-23,3.5-40.7,23.4-40.7,47.4v16
		c0,4.4,3.6,8,8,8h128c4.4,0,8-3.6,8-8v-16c0-24-17.7-43.9-40.7-47.4c5.4-6.8,8.7-15.3,8.7-24.6v-8C280,634,262.1,616,240,616z
		 M408,616c-22,0-40,18-40,40v8c0,9.3,3.3,17.8,8.7,24.6c-23,3.5-40.7,23.4-40.7,47.4v16c0,4.4,3.6,8.1,8,8h128c4.4,0,8-3.6,8-8v-16
		c0-24-17.7-43.9-40.8-47.4c5.4-6.8,8.7-15.3,8.7-24.6v-8C448,634,430,616,408,616L408,616z M72,632c13.4,0,24,10.5,24,24v8
		c0,13.4-10.5,24-24,24s-24-10.5-24-24v-8C48,642.6,58.6,632,72,632z M240,632c13.4,0,24,10.5,24,24v8c0,13.4-10.5,24-24,24
		c-13.4,0-24-10.5-24-24v-8C216,642.6,226.6,632,240,632z M408,632c13.4,0,24,10.5,24,24v8c0,13.4-10.6,24-24,24
		c-13.4,0-24-10.5-24-24v-8C384,642.6,394.6,632,408,632z M48,704h48c17.9,0,32,14.1,32,32v8H16v-8C16,718.2,30.1,704,48,704z
		 M216,704h48c17.9,0,32,14.1,32,32v8H184v-8C184,718.2,198.1,704,216,704z M384,704h48c17.9,0,32,14.1,32,32v8H352v-8
		C352,718.2,366.1,704,384,704L384,704z"/>
</g>
</svg>
